<svg width="31" height="31" viewBox="0 0 31 31" fill="none" xmlns="http://www.w3.org/2000/svg">
<g clip-path="url(#clip0_1_11)">
<path d="M2.99997 3H87V27H2.99997V3Z" fill="#0C4740"/>
<path d="M0.999969 5H89V25H0.999969V5Z" fill="#0C4740"/>
<path d="M4.99997 1H85V29H4.99997V1Z" fill="#0C4740"/>
</g>
<g clip-path="url(#clip1_1_11)">
<path d="M27 27L-57 27L-57 2.99999L27 3L27 27Z" fill="#0C4740"/>
<path d="M29 25L-59 25L-59 4.99999L29 5L29 25Z" fill="#0C4740"/>
<path d="M25 29L-55 29L-55 0.999993L25 1L25 29Z" fill="#0C4740"/>
</g>
<g filter="url(#filter0_f_1_11)">
<path d="M14.5 20.5V19H13V17.5H11.5V16H10V10H13V14.5H14.5V16H16V14.5H17.5V10H20.5V16H19V17.5H17.5V19H16V20.5H14.5Z" fill="#00FFA3" fill-opacity="0.45"/>
</g>
<g filter="url(#filter1_d_1_11)">
<path d="M14.5 20.5V19H13V17.5H11.5V16H10V10H13V14.5H14.5V16H16V14.5H17.5V10H20.5V16H19V17.5H17.5V19H16V20.5H14.5Z" fill="#00FFA3"/>
</g>
<defs>
<filter id="filter0_f_1_11" x="0" y="0" width="30.5" height="30.5" filterUnits="userSpaceOnUse" color-interpolation-filters="sRGB">
<feFlood flood-opacity="0" result="BackgroundImageFix"/>
<feBlend mode="normal" in="SourceGraphic" in2="BackgroundImageFix" result="shape"/>
<feGaussianBlur stdDeviation="5" result="effect1_foregroundBlur_1_11"/>
</filter>
<filter id="filter1_d_1_11" x="6" y="10" width="18.5" height="18.5" filterUnits="userSpaceOnUse" color-interpolation-filters="sRGB">
<feFlood flood-opacity="0" result="BackgroundImageFix"/>
<feColorMatrix in="SourceAlpha" type="matrix" values="0 0 0 0 0 0 0 0 0 0 0 0 0 0 0 0 0 0 127 0" result="hardAlpha"/>
<feOffset dy="4"/>
<feGaussianBlur stdDeviation="2"/>
<feComposite in2="hardAlpha" operator="out"/>
<feColorMatrix type="matrix" values="0 0 0 0 0 0 0 0 0 0 0 0 0 0 0 0 0 0 0.25 0"/>
<feBlend mode="normal" in2="BackgroundImageFix" result="effect1_dropShadow_1_11"/>
<feBlend mode="normal" in="SourceGraphic" in2="effect1_dropShadow_1_11" result="shape"/>
</filter>
<clipPath id="clip0_1_11">
<rect width="14" height="28" fill="white" transform="translate(0.999969 1)"/>
</clipPath>
<clipPath id="clip1_1_11">
<rect width="14" height="28" fill="white" transform="translate(29 29) rotate(-180)"/>
</clipPath>
</defs>
</svg>
