<svg width="500" height="500" viewBox="0 0 500 500" fill="none" xmlns="http://www.w3.org/2000/svg">
<g clip-path="url(#clip0_5_2)">
<rect width="500" height="500" rx="65" fill="#00FFA3"/>
<rect x="17" y="17" width="466" height="466" rx="56" fill="#0C4740"/>
<mask id="path-3-outside-1_5_2" maskUnits="userSpaceOnUse" x="-4.09808" y="67.8845" width="238.94" height="267.856" fill="black">
<rect fill="white" x="-4.09808" y="67.8845" width="238.94" height="267.856"/>
<path d="M9.12499 157.788C4.0854 149.059 7.07612 137.897 15.8049 132.858L105.366 81.1493C114.095 76.1097 125.257 79.1004 130.296 87.8293L221.546 245.879C226.586 254.608 223.595 265.769 214.866 270.809L125.305 322.517C116.576 327.557 105.414 324.566 100.375 315.837L9.12499 157.788Z"/>
<path d="M113.735 265.977L103.849 248.855L128.084 234.863L92.8764 173.883L78.8725 206.202L67.086 185.787L80.4831 156.979L102.215 144.432L147.84 223.457L167.069 212.355L176.955 229.477L113.735 265.977Z"/>
</mask>
<path d="M9.12499 157.788C4.0854 149.059 7.07612 137.897 15.8049 132.858L105.366 81.1493C114.095 76.1097 125.257 79.1004 130.296 87.8293L221.546 245.879C226.586 254.608 223.595 265.769 214.866 270.809L125.305 322.517C116.576 327.557 105.414 324.566 100.375 315.837L9.12499 157.788Z" fill="#CA2B2B"/>
<path d="M113.735 265.977L103.849 248.855L128.084 234.863L92.8764 173.883L78.8725 206.202L67.086 185.787L80.4831 156.979L102.215 144.432L147.84 223.457L167.069 212.355L176.955 229.477L113.735 265.977Z" fill="white"/>
<path d="M113.735 265.977L111.137 267.477L112.637 270.075L115.235 268.575L113.735 265.977ZM103.849 248.855L102.349 246.257L99.7513 247.757L101.251 250.355L103.849 248.855ZM128.084 234.863L129.584 237.462L132.182 235.962L130.682 233.363L128.084 234.863ZM92.8764 173.883L95.4745 172.383L92.4938 167.22L90.1237 172.69L92.8764 173.883ZM78.8725 206.202L76.2744 207.702L79.2551 212.865L81.6252 207.395L78.8725 206.202ZM67.086 185.787L64.3658 184.522L63.7081 185.937L64.488 187.287L67.086 185.787ZM80.4831 156.979L78.9831 154.381L78.1624 154.855L77.7629 155.714L80.4831 156.979ZM102.215 144.432L104.813 142.932L103.313 140.334L100.715 141.834L102.215 144.432ZM147.84 223.457L145.242 224.957L146.742 227.555L149.34 226.055L147.84 223.457ZM167.069 212.355L169.667 210.855L168.167 208.257L165.569 209.757L167.069 212.355ZM176.955 229.477L178.455 232.075L181.053 230.575L179.553 227.977L176.955 229.477ZM17.3049 135.456L106.866 83.7474L103.866 78.5512L14.3049 130.26L17.3049 135.456ZM127.698 89.3293L218.948 247.379L224.144 244.379L132.894 86.3293L127.698 89.3293ZM213.366 268.211L123.805 319.919L126.805 325.115L216.366 273.407L213.366 268.211ZM102.973 314.337L11.7231 156.288L6.52691 159.288L97.7768 317.337L102.973 314.337ZM123.805 319.919C116.511 324.13 107.184 321.631 102.973 314.337L97.7768 317.337C103.645 327.501 116.641 330.983 126.805 325.115L123.805 319.919ZM218.948 247.379C223.159 254.673 220.66 263.999 213.366 268.211L216.366 273.407C226.53 267.539 230.012 254.542 224.144 244.379L218.948 247.379ZM106.866 83.7474C114.16 79.5362 123.487 82.0353 127.698 89.3293L132.894 86.3293C127.026 76.1655 114.03 72.6832 103.866 78.5512L106.866 83.7474ZM14.3049 130.26C4.14124 136.128 0.658892 149.124 6.52691 159.288L11.7231 156.288C7.5119 148.994 10.011 139.667 17.3049 135.456L14.3049 130.26ZM116.333 264.477L106.447 247.355L101.251 250.355L111.137 267.477L116.333 264.477ZM105.349 251.453L129.584 237.462L126.584 232.265L102.349 246.257L105.349 251.453ZM130.682 233.363L95.4745 172.383L90.2783 175.383L125.486 236.363L130.682 233.363ZM90.1237 172.69L76.1198 205.009L81.6252 207.395L95.6291 175.075L90.1237 172.69ZM81.4706 204.702L69.6841 184.287L64.488 187.287L76.2744 207.702L81.4706 204.702ZM69.8063 187.052L83.2033 158.244L77.7629 155.714L64.3658 184.522L69.8063 187.052ZM81.9831 159.577L103.715 147.031L100.715 141.834L78.9831 154.381L81.9831 159.577ZM99.6168 145.932L145.242 224.957L150.438 221.957L104.813 142.932L99.6168 145.932ZM149.34 226.055L168.569 214.953L165.569 209.757L146.34 220.859L149.34 226.055ZM164.471 213.855L174.357 230.977L179.553 227.977L169.667 210.855L164.471 213.855ZM175.455 226.879L112.235 263.379L115.235 268.575L178.455 232.075L175.455 226.879Z" fill="white" mask="url(#path-3-outside-1_5_2)"/>
<mask id="path-5-outside-2_5_2" maskUnits="userSpaceOnUse" x="96.453" y="76.4709" width="199.259" height="255.121" fill="black">
<rect fill="white" x="96.453" y="76.4709" width="199.259" height="255.121"/>
<path d="M104.851 134.008C102.242 124.272 108.02 114.265 117.755 111.656L217.648 84.8902C227.384 82.2815 237.391 88.0591 240 97.7949L287.234 274.076C289.843 283.812 284.065 293.819 274.329 296.428L174.437 323.194C164.701 325.803 154.694 320.025 152.085 310.289L104.851 134.008Z"/>
<path d="M176.425 265.98L170.875 245.267L196.139 203.229C199.105 198.236 201.121 193.812 202.188 189.957C203.352 186.076 203.409 182.177 202.36 178.26C201.205 173.951 199.138 170.936 196.157 169.215C193.275 167.468 189.826 167.133 185.811 168.209C181.404 169.39 178.282 171.643 176.444 174.97C174.678 178.172 174.411 182.075 175.645 186.678L153.61 192.582C151.72 185.531 151.562 179.065 153.136 173.185C154.781 167.181 157.965 162.025 162.689 157.715C167.412 153.405 173.495 150.253 180.938 148.259C187.891 146.396 194.268 146.104 200.07 147.384C205.942 148.539 210.915 151.038 214.989 154.88C219.16 158.696 222.086 163.737 223.765 170.005C225.628 176.958 225.699 184.077 223.977 191.361C222.255 198.645 218.555 206.774 212.877 215.748L198.288 238.866L240.449 227.569L245.763 247.401L176.425 265.98Z"/>
</mask>
<path d="M104.851 134.008C102.242 124.272 108.02 114.265 117.755 111.656L217.648 84.8902C227.384 82.2815 237.391 88.0591 240 97.7949L287.234 274.076C289.843 283.812 284.065 293.819 274.329 296.428L174.437 323.194C164.701 325.803 154.694 320.025 152.085 310.289L104.851 134.008Z" fill="#68B313"/>
<path d="M176.425 265.98L170.875 245.267L196.139 203.229C199.105 198.236 201.121 193.812 202.188 189.957C203.352 186.076 203.409 182.177 202.36 178.26C201.205 173.951 199.138 170.936 196.157 169.215C193.275 167.468 189.826 167.133 185.811 168.209C181.404 169.39 178.282 171.643 176.444 174.97C174.678 178.172 174.411 182.075 175.645 186.678L153.61 192.582C151.72 185.531 151.562 179.065 153.136 173.185C154.781 167.181 157.965 162.025 162.689 157.715C167.412 153.405 173.495 150.253 180.938 148.259C187.891 146.396 194.268 146.104 200.07 147.384C205.942 148.539 210.915 151.038 214.989 154.88C219.16 158.696 222.086 163.737 223.765 170.005C225.628 176.958 225.699 184.077 223.977 191.361C222.255 198.645 218.555 206.774 212.877 215.748L198.288 238.866L240.449 227.569L245.763 247.401L176.425 265.98Z" fill="white"/>
<path d="M176.425 265.98L173.528 266.756L174.304 269.654L177.202 268.877L176.425 265.98ZM170.875 245.267L168.304 243.721L167.648 244.813L167.978 246.043L170.875 245.267ZM196.139 203.229L198.711 204.774L198.715 204.767L198.719 204.761L196.139 203.229ZM202.188 189.957L199.314 189.095L199.305 189.126L199.296 189.157L202.188 189.957ZM196.157 169.215L194.603 171.781L194.63 171.797L194.657 171.813L196.157 169.215ZM176.444 174.97L173.818 173.519L173.817 173.521L176.444 174.97ZM175.645 186.678L176.421 189.575L179.319 188.799L178.543 185.901L175.645 186.678ZM153.61 192.582L150.712 193.358L151.488 196.256L154.386 195.48L153.61 192.582ZM153.136 173.185L150.242 172.392L150.24 172.401L150.238 172.41L153.136 173.185ZM162.689 157.715L164.711 159.931L164.711 159.931L162.689 157.715ZM200.07 147.384L199.423 150.313L199.457 150.321L199.49 150.327L200.07 147.384ZM214.989 154.88L212.93 157.062L212.947 157.078L212.964 157.093L214.989 154.88ZM223.977 191.361L221.057 190.671L221.057 190.671L223.977 191.361ZM212.877 215.748L210.342 214.144L210.34 214.147L212.877 215.748ZM198.288 238.866L195.751 237.265L191.66 243.748L199.065 241.764L198.288 238.866ZM240.449 227.569L243.347 226.793L242.57 223.895L239.672 224.671L240.449 227.569ZM245.763 247.401L246.539 250.299L249.437 249.522L248.661 246.624L245.763 247.401ZM118.532 114.554L218.425 87.7879L216.872 81.9924L116.979 108.759L118.532 114.554ZM237.102 98.5713L284.336 274.853L290.132 273.3L242.897 97.0184L237.102 98.5713ZM273.553 293.53L173.66 320.296L175.213 326.092L275.106 299.325L273.553 293.53ZM154.983 309.513L107.748 133.231L101.953 134.784L149.187 311.066L154.983 309.513ZM173.66 320.296C165.525 322.476 157.163 317.648 154.983 309.513L149.187 311.066C152.225 322.402 163.877 329.129 175.213 326.092L173.66 320.296ZM284.336 274.853C286.516 282.988 281.688 291.35 273.553 293.53L275.106 299.325C286.442 296.288 293.169 284.636 290.132 273.3L284.336 274.853ZM218.425 87.7879C226.56 85.6081 234.922 90.436 237.102 98.5713L242.897 97.0184C239.86 85.6823 228.208 78.9549 216.872 81.9924L218.425 87.7879ZM116.979 108.759C105.643 111.796 98.9154 123.448 101.953 134.784L107.748 133.231C105.569 125.096 110.397 116.734 118.532 114.554L116.979 108.759ZM179.323 265.203L173.773 244.49L167.978 246.043L173.528 266.756L179.323 265.203ZM173.447 246.812L198.711 204.774L193.568 201.683L168.304 243.721L173.447 246.812ZM198.719 204.761C201.765 199.632 203.917 194.955 205.079 190.757L199.296 189.157C198.325 192.668 196.445 196.839 193.56 201.697L198.719 204.761ZM205.061 190.819C206.386 186.404 206.451 181.938 205.258 177.483L199.462 179.036C200.368 182.416 200.318 185.748 199.314 189.095L205.061 190.819ZM205.258 177.483C203.961 172.643 201.514 168.844 197.657 166.617L194.657 171.813C196.761 173.028 198.45 175.258 199.462 179.036L205.258 177.483ZM197.712 166.65C193.974 164.384 189.643 164.076 185.035 165.311L186.588 171.106C190.01 170.189 192.577 170.553 194.603 171.781L197.712 166.65ZM185.035 165.311C180.01 166.657 176.128 169.338 173.818 173.519L179.07 176.42C180.436 173.948 182.798 172.122 186.588 171.106L185.035 165.311ZM173.817 173.521C171.573 177.589 171.376 182.337 172.747 187.454L178.543 185.901C177.447 181.812 177.782 178.755 179.071 176.419L173.817 173.521ZM174.868 183.78L152.833 189.684L154.386 195.48L176.421 189.575L174.868 183.78ZM156.507 191.805C154.727 185.161 154.621 179.24 156.034 173.961L150.238 172.41C148.503 178.891 148.713 185.9 150.712 193.358L156.507 191.805ZM156.029 173.978C157.52 168.537 160.394 163.869 164.711 159.931L160.666 155.499C155.536 160.18 152.042 165.826 150.242 172.392L156.029 173.978ZM164.711 159.931C169.013 156.005 174.641 153.052 181.714 151.157L180.161 145.361C172.349 147.455 165.81 150.806 160.666 155.499L164.711 159.931ZM181.714 151.157C188.3 149.392 194.182 149.157 199.423 150.313L200.716 144.454C194.355 143.051 187.482 143.4 180.161 145.361L181.714 151.157ZM199.49 150.327C204.848 151.381 209.297 153.635 212.93 157.062L217.047 152.697C212.534 148.44 207.037 145.697 200.649 144.44L199.49 150.327ZM212.964 157.093C216.654 160.469 219.313 164.983 220.867 170.781L226.663 169.229C224.858 162.492 221.667 156.923 217.014 152.666L212.964 157.093ZM220.867 170.781C222.597 177.236 222.67 183.85 221.057 190.671L226.896 192.051C228.728 184.304 228.66 176.681 226.663 169.229L220.867 170.781ZM221.057 190.671C219.437 197.527 215.91 205.344 210.342 214.144L215.412 217.352C221.2 208.205 225.073 199.764 226.896 192.051L221.057 190.671ZM210.34 214.147L195.751 237.265L200.825 240.467L215.414 217.349L210.34 214.147ZM199.065 241.764L241.225 230.467L239.672 224.671L197.512 235.968L199.065 241.764ZM237.551 228.346L242.865 248.177L248.661 246.624L243.347 226.793L237.551 228.346ZM244.986 244.503L175.649 263.082L177.202 268.877L246.539 250.299L244.986 244.503Z" fill="white" mask="url(#path-5-outside-2_5_2)"/>
<mask id="path-7-outside-3_5_2" maskUnits="userSpaceOnUse" x="205.953" y="76.4924" width="199.259" height="255.121" fill="black">
<rect fill="white" x="205.953" y="76.4924" width="199.259" height="255.121"/>
<path d="M261.585 97.7948C264.194 88.059 274.201 82.2814 283.937 84.8901L383.829 111.656C393.565 114.265 399.343 124.272 396.734 134.008L349.5 310.289C346.891 320.025 336.884 325.802 327.148 323.194L227.255 296.428C217.52 293.819 211.742 283.812 214.351 274.076L261.585 97.7948Z"/>
<path d="M290.391 258.238C283.046 256.27 277.008 253.34 272.278 249.448C267.672 245.485 264.516 240.808 262.811 235.418C261.133 229.93 261.133 224.052 262.813 217.784L284.848 223.689C283.798 227.606 284.147 231.006 285.894 233.888C287.765 236.699 290.904 238.694 295.311 239.875C299.816 241.082 303.532 240.924 306.46 239.399C309.388 237.874 311.39 235.104 312.465 231.089L314.827 222.275C315.903 218.259 315.506 214.846 313.634 212.036C311.888 209.154 308.811 207.122 304.404 205.941L291.77 202.556L296.848 183.606L323.559 170.295L283.896 159.667L288.816 141.304L350.956 157.955L345.878 176.905L307.002 196.246L309.403 187.285C320.469 190.25 328.437 195.377 333.307 202.664C338.275 209.979 339.473 218.434 336.902 228.032L334.501 236.993C332.821 243.261 329.883 248.351 325.685 252.265C321.612 256.107 316.541 258.579 310.472 259.682C304.43 260.687 297.736 260.206 290.391 258.238Z"/>
</mask>
<path d="M261.585 97.7948C264.194 88.059 274.201 82.2814 283.937 84.8901L383.829 111.656C393.565 114.265 399.343 124.272 396.734 134.008L349.5 310.289C346.891 320.025 336.884 325.802 327.148 323.194L227.255 296.428C217.52 293.819 211.742 283.812 214.351 274.076L261.585 97.7948Z" fill="#1F52B1"/>
<path d="M290.391 258.238C283.046 256.27 277.008 253.34 272.278 249.448C267.672 245.485 264.516 240.808 262.811 235.418C261.133 229.93 261.133 224.052 262.813 217.784L284.848 223.689C283.798 227.606 284.147 231.006 285.894 233.888C287.765 236.699 290.904 238.694 295.311 239.875C299.816 241.082 303.532 240.924 306.46 239.399C309.388 237.874 311.39 235.104 312.465 231.089L314.827 222.275C315.903 218.259 315.506 214.846 313.634 212.036C311.888 209.154 308.811 207.122 304.404 205.941L291.77 202.556L296.848 183.606L323.559 170.295L283.896 159.667L288.816 141.304L350.956 157.955L345.878 176.905L307.002 196.246L309.403 187.285C320.469 190.25 328.437 195.377 333.307 202.664C338.275 209.979 339.473 218.434 336.902 228.032L334.501 236.993C332.821 243.261 329.883 248.351 325.685 252.265C321.612 256.107 316.541 258.579 310.472 259.682C304.43 260.687 297.736 260.206 290.391 258.238Z" fill="white"/>
<path d="M272.278 249.448L270.321 251.722L270.346 251.744L270.372 251.765L272.278 249.448ZM262.811 235.418L259.943 236.295L259.947 236.309L259.951 236.323L262.811 235.418ZM262.813 217.784L263.589 214.887L260.692 214.11L259.915 217.008L262.813 217.784ZM284.848 223.689L287.746 224.465L288.522 221.567L285.625 220.791L284.848 223.689ZM285.894 233.888L283.328 235.443L283.361 235.497L283.397 235.551L285.894 233.888ZM306.46 239.399L307.846 242.06L307.846 242.06L306.46 239.399ZM313.634 212.036L311.069 213.591L311.102 213.645L311.137 213.698L313.634 212.036ZM291.77 202.556L288.872 201.78L288.096 204.677L290.994 205.454L291.77 202.556ZM296.848 183.606L295.51 180.921L294.3 181.524L293.95 182.829L296.848 183.606ZM323.559 170.295L324.897 172.98L331.987 169.447L324.336 167.397L323.559 170.295ZM283.896 159.667L280.998 158.891L280.222 161.788L283.12 162.565L283.896 159.667ZM288.816 141.304L289.593 138.407L286.695 137.63L285.919 140.528L288.816 141.304ZM350.956 157.955L353.853 158.731L354.63 155.833L351.732 155.057L350.956 157.955ZM345.878 176.905L347.214 179.591L348.425 178.988L348.776 177.681L345.878 176.905ZM307.002 196.246L304.104 195.469L302.382 201.895L308.338 198.932L307.002 196.246ZM309.403 187.285L310.179 184.387L307.281 183.61L306.505 186.508L309.403 187.285ZM333.307 202.664L330.813 204.331L330.819 204.341L330.826 204.35L333.307 202.664ZM325.685 252.265L323.639 250.071L323.633 250.077L323.627 250.083L325.685 252.265ZM310.472 259.682L310.964 262.642L310.986 262.638L311.008 262.634L310.472 259.682ZM283.16 87.7878L383.053 114.554L384.606 108.758L284.713 81.9923L283.16 87.7878ZM393.836 133.231L346.602 309.513L352.397 311.066L399.632 134.784L393.836 133.231ZM327.924 320.296L228.032 293.53L226.479 299.325L326.372 326.092L327.924 320.296ZM217.248 274.852L264.483 98.5712L258.687 97.0183L211.453 273.3L217.248 274.852ZM228.032 293.53C219.896 291.35 215.069 282.988 217.248 274.852L211.453 273.3C208.415 284.636 215.143 296.288 226.479 299.325L228.032 293.53ZM346.602 309.513C344.422 317.648 336.06 322.476 327.924 320.296L326.372 326.092C337.708 329.129 349.36 322.402 352.397 311.066L346.602 309.513ZM383.053 114.554C391.188 116.734 396.016 125.096 393.836 133.231L399.632 134.784C402.669 123.448 395.942 111.796 384.606 108.758L383.053 114.554ZM284.713 81.9923C273.377 78.9548 261.725 85.6821 258.687 97.0183L264.483 98.5712C266.663 90.4359 275.025 85.608 283.16 87.7878L284.713 81.9923ZM291.167 255.34C284.139 253.457 278.514 250.694 274.184 247.132L270.372 251.765C275.503 255.986 281.953 259.083 289.614 261.136L291.167 255.34ZM274.234 247.174C270.018 243.546 267.196 239.332 265.672 234.513L259.951 236.323C261.836 242.284 265.325 247.424 270.321 251.722L274.234 247.174ZM265.68 234.541C264.187 229.658 264.157 224.358 265.711 218.561L259.915 217.008C258.11 223.746 258.079 230.202 259.943 236.295L265.68 234.541ZM262.036 220.682L284.072 226.586L285.625 220.791L263.589 214.887L262.036 220.682ZM281.95 222.912C280.735 227.447 281.073 231.722 283.328 235.443L288.459 232.333C287.221 230.29 286.862 227.765 287.746 224.465L281.95 222.912ZM283.397 235.551C285.795 239.154 289.673 241.47 294.535 242.773L296.087 236.977C292.135 235.919 289.734 234.244 288.391 232.226L283.397 235.551ZM294.535 242.773C299.466 244.094 304.021 244.051 307.846 242.06L305.074 236.738C303.044 237.796 300.166 238.07 296.087 236.977L294.535 242.773ZM307.846 242.06C311.704 240.05 314.13 236.468 315.363 231.865L309.568 230.312C308.649 233.74 307.072 235.698 305.074 236.738L307.846 242.06ZM315.363 231.865L317.725 223.051L311.929 221.498L309.568 230.312L315.363 231.865ZM317.725 223.051C318.968 218.412 318.588 214.064 316.132 210.373L311.137 213.698C312.423 215.629 312.838 218.107 311.929 221.498L317.725 223.051ZM316.2 210.481C313.928 206.732 310.064 204.352 305.18 203.043L303.627 208.839C307.557 209.892 309.848 211.576 311.069 213.591L316.2 210.481ZM305.18 203.043L292.547 199.658L290.994 205.454L303.627 208.839L305.18 203.043ZM294.668 203.332L299.746 184.382L293.95 182.829L288.872 201.78L294.668 203.332ZM298.186 186.291L324.897 172.98L322.221 167.61L295.51 180.921L298.186 186.291ZM324.336 167.397L284.673 156.769L283.12 162.565L322.783 173.193L324.336 167.397ZM286.794 160.444L291.714 142.081L285.919 140.528L280.998 158.891L286.794 160.444ZM288.04 144.202L350.179 160.852L351.732 155.057L289.593 138.407L288.04 144.202ZM348.058 157.178L342.98 176.128L348.776 177.681L353.853 158.731L348.058 157.178ZM344.542 174.219L305.665 193.56L308.338 198.932L347.214 179.591L344.542 174.219ZM309.899 197.022L312.3 188.061L306.505 186.508L304.104 195.469L309.899 197.022ZM308.626 190.182C319.21 193.018 326.458 197.814 330.813 204.331L335.802 200.998C330.417 192.939 321.728 187.481 310.179 184.387L308.626 190.182ZM330.826 204.35C335.24 210.849 336.381 218.384 334.004 227.256L339.8 228.808C342.566 218.485 341.311 209.108 335.789 200.979L330.826 204.35ZM334.004 227.256L331.603 236.217L337.398 237.769L339.8 228.808L334.004 227.256ZM331.603 236.217C330.049 242.014 327.374 246.589 323.639 250.071L327.731 254.459C332.392 250.114 335.593 244.507 337.398 237.769L331.603 236.217ZM323.627 250.083C320.018 253.486 315.493 255.721 309.935 256.731L311.008 262.634C317.588 261.438 323.205 258.728 327.743 254.447L323.627 250.083ZM309.98 256.723C304.449 257.643 298.196 257.223 291.167 255.34L289.614 261.136C297.276 263.189 304.41 263.732 310.964 262.642L309.98 256.723Z" fill="white" mask="url(#path-7-outside-3_5_2)"/>
<mask id="path-9-outside-4_5_2" maskUnits="userSpaceOnUse" x="266.362" y="63.9019" width="238.94" height="267.856" fill="black">
<rect fill="white" x="266.362" y="63.9019" width="238.94" height="267.856"/>
<path d="M370.835 83.8049C375.875 75.0761 387.036 72.0854 395.765 77.125L485.327 128.833C494.056 133.873 497.046 145.034 492.007 153.763L400.757 311.813C395.717 320.542 384.556 323.532 375.827 318.493L286.265 266.784C277.537 261.745 274.546 250.583 279.585 241.854L370.835 83.8049Z"/>
<path d="M368.299 250.927L378.489 233.278L336.342 208.945L352.235 181.418L417.751 151.282L440.141 164.209L367.48 197.595L364.667 202.468L388.374 216.156L400.237 195.609L419.993 207.016L388.055 262.333L368.299 250.927Z"/>
</mask>
<path d="M370.835 83.8049C375.875 75.0761 387.036 72.0854 395.765 77.125L485.327 128.833C494.056 133.873 497.046 145.034 492.007 153.763L400.757 311.813C395.717 320.542 384.556 323.532 375.827 318.493L286.265 266.784C277.537 261.745 274.546 250.583 279.585 241.854L370.835 83.8049Z" fill="#EDBC01"/>
<path d="M368.299 250.927L378.489 233.278L336.342 208.945L352.235 181.418L417.751 151.282L440.141 164.209L367.48 197.595L364.667 202.468L388.374 216.156L400.237 195.609L419.993 207.016L388.055 262.333L368.299 250.927Z" fill="white"/>
<path d="M368.299 250.927L365.701 249.427L364.201 252.025L366.799 253.525L368.299 250.927ZM378.489 233.278L381.087 234.778L382.587 232.18L379.989 230.68L378.489 233.278ZM336.342 208.945L333.744 207.445L332.244 210.043L334.842 211.543L336.342 208.945ZM352.235 181.418L350.981 178.692L350.114 179.091L349.637 179.918L352.235 181.418ZM417.751 151.282L419.251 148.684L417.907 147.908L416.497 148.557L417.751 151.282ZM440.141 164.209L441.394 166.935L446.667 164.512L441.641 161.611L440.141 164.209ZM367.48 197.595L366.228 194.869L365.36 195.268L364.882 196.095L367.48 197.595ZM364.667 202.468L362.069 200.968L360.569 203.566L363.167 205.066L364.667 202.468ZM388.374 216.156L386.874 218.754L389.472 220.254L390.972 217.656L388.374 216.156ZM400.237 195.609L401.737 193.011L399.139 191.511L397.639 194.109L400.237 195.609ZM419.993 207.016L422.591 208.516L424.091 205.918L421.493 204.418L419.993 207.016ZM388.055 262.333L386.555 264.931L389.153 266.431L390.653 263.833L388.055 262.333ZM394.265 79.7231L483.827 131.431L486.827 126.235L397.265 74.5269L394.265 79.7231ZM489.409 152.263L398.159 310.313L403.355 313.313L494.605 155.263L489.409 152.263ZM377.327 315.895L287.765 264.186L284.765 269.382L374.327 321.091L377.327 315.895ZM282.184 243.354L373.433 85.3049L368.237 82.3049L276.987 240.354L282.184 243.354ZM287.765 264.186C280.471 259.975 277.972 250.648 282.184 243.354L276.987 240.354C271.119 250.518 274.602 263.514 284.765 269.382L287.765 264.186ZM398.159 310.313C393.947 317.607 384.621 320.106 377.327 315.895L374.327 321.091C384.491 326.959 397.487 323.476 403.355 313.313L398.159 310.313ZM483.827 131.431C491.121 135.643 493.62 144.969 489.409 152.263L494.605 155.263C500.473 145.1 496.99 132.103 486.827 126.235L483.827 131.431ZM397.265 74.5269C387.102 68.6589 374.105 72.1412 368.237 82.3049L373.433 85.3049C377.645 78.011 386.971 75.5119 394.265 79.7231L397.265 74.5269ZM370.897 252.427L381.087 234.778L375.891 231.778L365.701 249.427L370.897 252.427ZM379.989 230.68L337.842 206.347L334.842 211.543L376.989 235.876L379.989 230.68ZM338.94 210.445L354.833 182.918L349.637 179.918L333.744 207.445L338.94 210.445ZM353.489 184.143L419.005 154.008L416.497 148.557L350.981 178.692L353.489 184.143ZM416.251 153.88L438.641 166.807L441.641 161.611L419.251 148.684L416.251 153.88ZM438.889 161.483L366.228 194.869L368.733 200.321L441.394 166.935L438.889 161.483ZM364.882 196.095L362.069 200.968L367.265 203.968L370.078 199.095L364.882 196.095ZM363.167 205.066L386.874 218.754L389.874 213.558L366.167 199.87L363.167 205.066ZM390.972 217.656L402.835 197.109L397.639 194.109L385.776 214.656L390.972 217.656ZM398.737 198.208L418.493 209.614L421.493 204.418L401.737 193.011L398.737 198.208ZM417.395 205.516L385.457 260.833L390.653 263.833L422.591 208.516L417.395 205.516ZM389.555 259.735L369.799 248.329L366.799 253.525L386.555 264.931L389.555 259.735Z" fill="white" mask="url(#path-9-outside-4_5_2)"/>
<g filter="url(#filter0_f_5_2)">
<ellipse cx="250" cy="293.5" rx="167" ry="115.5" fill="#00FFA3" fill-opacity="0.54"/>
</g>
<g filter="url(#filter1_d_5_2)">
<path d="M95.625 364.125V352.25H83.75V340.375H71.875V328.5H60V281H83.75V316.625H95.625V328.5H107.5V316.625H119.375V281H143.125V328.5H131.25V340.375H119.375V352.25H107.5V364.125H95.625ZM166.875 364.125V352.25H155V281H178.75V352.25H214.375V281H238.125V352.25H226.25V364.125H166.875ZM250 364.125V281H273.75V292.875H285.625V304.75H297.5V316.625H309.375V281H333.125V364.125H309.375V340.375H297.5V328.5H285.625V316.625H273.75V364.125H250ZM356.875 364.125V352.25H345V292.875H356.875V281H416.25V292.875H428.125V352.25H416.25V364.125H356.875ZM368.75 352.25H404.375V292.875H368.75V352.25Z" fill="#00FFA3"/>
<path d="M95.625 364.125H91.625V368.125H95.625V364.125ZM95.625 352.25H99.625V348.25H95.625V352.25ZM83.75 352.25H79.75V356.25H83.75V352.25ZM83.75 340.375H87.75V336.375H83.75V340.375ZM71.875 340.375H67.875V344.375H71.875V340.375ZM71.875 328.5H75.875V324.5H71.875V328.5ZM60 328.5H56V332.5H60V328.5ZM60 281V277H56V281H60ZM83.75 281H87.75V277H83.75V281ZM83.75 316.625H79.75V320.625H83.75V316.625ZM95.625 316.625H99.625V312.625H95.625V316.625ZM95.625 328.5H91.625V332.5H95.625V328.5ZM107.5 328.5V332.5H111.5V328.5H107.5ZM107.5 316.625V312.625H103.5V316.625H107.5ZM119.375 316.625V320.625H123.375V316.625H119.375ZM119.375 281V277H115.375V281H119.375ZM143.125 281H147.125V277H143.125V281ZM143.125 328.5V332.5H147.125V328.5H143.125ZM131.25 328.5V324.5H127.25V328.5H131.25ZM131.25 340.375V344.375H135.25V340.375H131.25ZM119.375 340.375V336.375H115.375V340.375H119.375ZM119.375 352.25V356.25H123.375V352.25H119.375ZM107.5 352.25V348.25H103.5V352.25H107.5ZM107.5 364.125V368.125H111.5V364.125H107.5ZM99.625 364.125V352.25H91.625V364.125H99.625ZM95.625 348.25H83.75V356.25H95.625V348.25ZM87.75 352.25V340.375H79.75V352.25H87.75ZM83.75 336.375H71.875V344.375H83.75V336.375ZM75.875 340.375V328.5H67.875V340.375H75.875ZM71.875 324.5H60V332.5H71.875V324.5ZM64 328.5V281H56V328.5H64ZM60 285H83.75V277H60V285ZM79.75 281V316.625H87.75V281H79.75ZM83.75 320.625H95.625V312.625H83.75V320.625ZM91.625 316.625V328.5H99.625V316.625H91.625ZM95.625 332.5H107.5V324.5H95.625V332.5ZM111.5 328.5V316.625H103.5V328.5H111.5ZM107.5 320.625H119.375V312.625H107.5V320.625ZM123.375 316.625V281H115.375V316.625H123.375ZM119.375 285H143.125V277H119.375V285ZM139.125 281V328.5H147.125V281H139.125ZM143.125 324.5H131.25V332.5H143.125V324.5ZM127.25 328.5V340.375H135.25V328.5H127.25ZM131.25 336.375H119.375V344.375H131.25V336.375ZM115.375 340.375V352.25H123.375V340.375H115.375ZM119.375 348.25H107.5V356.25H119.375V348.25ZM103.5 352.25V364.125H111.5V352.25H103.5ZM107.5 360.125H95.625V368.125H107.5V360.125ZM166.875 364.125H162.875V368.125H166.875V364.125ZM166.875 352.25H170.875V348.25H166.875V352.25ZM155 352.25H151V356.25H155V352.25ZM155 281V277H151V281H155ZM178.75 281H182.75V277H178.75V281ZM178.75 352.25H174.75V356.25H178.75V352.25ZM214.375 352.25V356.25H218.375V352.25H214.375ZM214.375 281V277H210.375V281H214.375ZM238.125 281H242.125V277H238.125V281ZM238.125 352.25V356.25H242.125V352.25H238.125ZM226.25 352.25V348.25H222.25V352.25H226.25ZM226.25 364.125V368.125H230.25V364.125H226.25ZM170.875 364.125V352.25H162.875V364.125H170.875ZM166.875 348.25H155V356.25H166.875V348.25ZM159 352.25V281H151V352.25H159ZM155 285H178.75V277H155V285ZM174.75 281V352.25H182.75V281H174.75ZM178.75 356.25H214.375V348.25H178.75V356.25ZM218.375 352.25V281H210.375V352.25H218.375ZM214.375 285H238.125V277H214.375V285ZM234.125 281V352.25H242.125V281H234.125ZM238.125 348.25H226.25V356.25H238.125V348.25ZM222.25 352.25V364.125H230.25V352.25H222.25ZM226.25 360.125H166.875V368.125H226.25V360.125ZM250 364.125H246V368.125H250V364.125ZM250 281V277H246V281H250ZM273.75 281H277.75V277H273.75V281ZM273.75 292.875H269.75V296.875H273.75V292.875ZM285.625 292.875H289.625V288.875H285.625V292.875ZM285.625 304.75H281.625V308.75H285.625V304.75ZM297.5 304.75H301.5V300.75H297.5V304.75ZM297.5 316.625H293.5V320.625H297.5V316.625ZM309.375 316.625V320.625H313.375V316.625H309.375ZM309.375 281V277H305.375V281H309.375ZM333.125 281H337.125V277H333.125V281ZM333.125 364.125V368.125H337.125V364.125H333.125ZM309.375 364.125H305.375V368.125H309.375V364.125ZM309.375 340.375H313.375V336.375H309.375V340.375ZM297.5 340.375H293.5V344.375H297.5V340.375ZM297.5 328.5H301.5V324.5H297.5V328.5ZM285.625 328.5H281.625V332.5H285.625V328.5ZM285.625 316.625H289.625V312.625H285.625V316.625ZM273.75 316.625V312.625H269.75V316.625H273.75ZM273.75 364.125V368.125H277.75V364.125H273.75ZM254 364.125V281H246V364.125H254ZM250 285H273.75V277H250V285ZM269.75 281V292.875H277.75V281H269.75ZM273.75 296.875H285.625V288.875H273.75V296.875ZM281.625 292.875V304.75H289.625V292.875H281.625ZM285.625 308.75H297.5V300.75H285.625V308.75ZM293.5 304.75V316.625H301.5V304.75H293.5ZM297.5 320.625H309.375V312.625H297.5V320.625ZM313.375 316.625V281H305.375V316.625H313.375ZM309.375 285H333.125V277H309.375V285ZM329.125 281V364.125H337.125V281H329.125ZM333.125 360.125H309.375V368.125H333.125V360.125ZM313.375 364.125V340.375H305.375V364.125H313.375ZM309.375 336.375H297.5V344.375H309.375V336.375ZM301.5 340.375V328.5H293.5V340.375H301.5ZM297.5 324.5H285.625V332.5H297.5V324.5ZM289.625 328.5V316.625H281.625V328.5H289.625ZM285.625 312.625H273.75V320.625H285.625V312.625ZM269.75 316.625V364.125H277.75V316.625H269.75ZM273.75 360.125H250V368.125H273.75V360.125ZM356.875 364.125H352.875V368.125H356.875V364.125ZM356.875 352.25H360.875V348.25H356.875V352.25ZM345 352.25H341V356.25H345V352.25ZM345 292.875V288.875H341V292.875H345ZM356.875 292.875V296.875H360.875V292.875H356.875ZM356.875 281V277H352.875V281H356.875ZM416.25 281H420.25V277H416.25V281ZM416.25 292.875H412.25V296.875H416.25V292.875ZM428.125 292.875H432.125V288.875H428.125V292.875ZM428.125 352.25V356.25H432.125V352.25H428.125ZM416.25 352.25V348.25H412.25V352.25H416.25ZM416.25 364.125V368.125H420.25V364.125H416.25ZM368.75 352.25H364.75V356.25H368.75V352.25ZM404.375 352.25V356.25H408.375V352.25H404.375ZM404.375 292.875H408.375V288.875H404.375V292.875ZM368.75 292.875V288.875H364.75V292.875H368.75ZM360.875 364.125V352.25H352.875V364.125H360.875ZM356.875 348.25H345V356.25H356.875V348.25ZM349 352.25V292.875H341V352.25H349ZM345 296.875H356.875V288.875H345V296.875ZM360.875 292.875V281H352.875V292.875H360.875ZM356.875 285H416.25V277H356.875V285ZM412.25 281V292.875H420.25V281H412.25ZM416.25 296.875H428.125V288.875H416.25V296.875ZM424.125 292.875V352.25H432.125V292.875H424.125ZM428.125 348.25H416.25V356.25H428.125V348.25ZM412.25 352.25V364.125H420.25V352.25H412.25ZM416.25 360.125H356.875V368.125H416.25V360.125ZM368.75 356.25H404.375V348.25H368.75V356.25ZM408.375 352.25V292.875H400.375V352.25H408.375ZM404.375 288.875H368.75V296.875H404.375V288.875ZM364.75 292.875V352.25H372.75V292.875H364.75Z" fill="#0C4740"/>
</g>
</g>
<defs>
<filter id="filter0_f_5_2" x="-17" y="78" width="534" height="431" filterUnits="userSpaceOnUse" color-interpolation-filters="sRGB">
<feFlood flood-opacity="0" result="BackgroundImageFix"/>
<feBlend mode="normal" in="SourceGraphic" in2="BackgroundImageFix" result="shape"/>
<feGaussianBlur stdDeviation="50" result="effect1_foregroundBlur_5_2"/>
</filter>
<filter id="filter1_d_5_2" x="56" y="281" width="376.125" height="91.125" filterUnits="userSpaceOnUse" color-interpolation-filters="sRGB">
<feFlood flood-opacity="0" result="BackgroundImageFix"/>
<feColorMatrix in="SourceAlpha" type="matrix" values="0 0 0 0 0 0 0 0 0 0 0 0 0 0 0 0 0 0 127 0" result="hardAlpha"/>
<feOffset dy="4"/>
<feGaussianBlur stdDeviation="2"/>
<feComposite in2="hardAlpha" operator="out"/>
<feColorMatrix type="matrix" values="0 0 0 0 0 0 0 0 0 0 0 0 0 0 0 0 0 0 0.25 0"/>
<feBlend mode="normal" in2="BackgroundImageFix" result="effect1_dropShadow_5_2"/>
<feBlend mode="normal" in="SourceGraphic" in2="effect1_dropShadow_5_2" result="shape"/>
</filter>
<clipPath id="clip0_5_2">
<rect width="500" height="500" rx="65" fill="white"/>
</clipPath>
</defs>
</svg>
